<svg xmlns="http://www.w3.org/2000/svg" viewBox="0 0 1440 320">
  <path fill="#f3f4f5" fill-opacity="1" d="M0,128L34.3,128C68.6,128,137,128,206,144C274.3,160,343,192,411,192C480,192,549,160,617,170.7C685.7,181,754,235,823,229.3C891.4,224,960,160,1029,144C1097.1,128,1166,160,1234,192C1302.9,224,1371,256,1406,272L1440,288L1440,320L1405.7,320C1371.4,320,1303,320,1234,320C1165.7,320,1097,320,1029,320C960,320,891,320,823,320C754.3,320,686,320,617,320C548.6,320,480,320,411,320C342.9,320,274,320,206,320C137.1,320,69,320,34,320L0,320Z"></path>
</svg>
